<svg width="143" height="143" viewBox="0 0 143 143" fill="none" xmlns="http://www.w3.org/2000/svg">
<path d="M142.308 62.0412V137.18C142.308 140.006 140.032 142.299 137.227 142.299H76.2542C73.4493 142.299 71.1731 140.006 71.1731 137.18V123.187C71.4509 106.034 73.2522 89.6034 77.0339 82.1283C79.3011 77.6324 83.038 75.1858 87.3305 73.8768C95.4405 71.4212 109.671 73.1004 115.711 72.8115C115.711 72.8115 133.957 73.5427 133.957 63.1336C133.957 54.7557 125.802 55.4147 125.802 55.4147C116.813 55.6494 109.967 55.0355 105.531 53.2751C98.1021 50.332 97.8511 44.9333 97.8242 43.1278C97.4568 22.2733 66.9344 19.7726 40.0413 24.9456C10.6391 30.579 40.3639 73.0372 40.3639 129.714V137.28C40.3102 140.06 38.0788 142.308 35.3008 142.308H5.1099C2.305 142.308 0.0288086 140.015 0.0288086 137.189L0.0288086 7.23283C0.0288086 4.4071 2.305 2.11401 5.1099 2.11401L33.4906 2.11401C36.2955 2.11401 38.5717 4.4071 38.5717 7.23283C38.5717 11.4308 43.2585 13.769 46.6459 11.3225C56.8529 3.9557 69.9544 0.0285645 84.6152 0.0285645C117.459 0.0285645 142.291 19.3122 142.291 62.0412H142.308ZM87.7875 46.7931C87.7875 40.7444 82.9215 35.8422 76.9174 35.8422C70.9133 35.8422 66.0472 40.7444 66.0472 46.7931C66.0472 52.8418 70.9133 57.7439 76.9174 57.7439C82.9215 57.7439 87.7875 52.8418 87.7875 46.7931Z" fill="#662482"/>
</svg>
